<mxfile host="app.diagrams.net" agent="Mozilla/5.0 (Windows NT 10.0; Win64; x64) AppleWebKit/537.36 (KHTML, like Gecko) Chrome/130.0.0.0 Safari/537.36" version="24.8.1">
  <diagram name="Trang-1" id="3AcVZDm1Hnr-APWwd12h">
    <mxGraphModel dx="2262" dy="1228" grid="1" gridSize="10" guides="1" tooltips="1" connect="1" arrows="1" fold="1" page="1" pageScale="1" pageWidth="827" pageHeight="1169" math="0" shadow="0">
      <root>
        <mxCell id="0" />
        <mxCell id="1" parent="0" />
        <mxCell id="VG4Cr9WYrqjXDXj0A-x--7" value="" style="group" vertex="1" connectable="0" parent="1">
          <mxGeometry x="120" y="240" width="1460" height="200" as="geometry" />
        </mxCell>
        <mxCell id="VG4Cr9WYrqjXDXj0A-x--1" value="" style="rounded=0;whiteSpace=wrap;html=1;" vertex="1" parent="VG4Cr9WYrqjXDXj0A-x--7">
          <mxGeometry x="80" y="-70" width="1380" height="130" as="geometry" />
        </mxCell>
        <mxCell id="VG4Cr9WYrqjXDXj0A-x--3" value="" style="rounded=0;whiteSpace=wrap;html=1;" vertex="1" parent="VG4Cr9WYrqjXDXj0A-x--7">
          <mxGeometry x="82.5" y="60" width="1375" height="140" as="geometry" />
        </mxCell>
        <mxCell id="VG4Cr9WYrqjXDXj0A-x--4" value="Front-end" style="rounded=0;whiteSpace=wrap;html=1;" vertex="1" parent="VG4Cr9WYrqjXDXj0A-x--7">
          <mxGeometry x="10" y="60" width="80" height="140" as="geometry" />
        </mxCell>
        <mxCell id="VG4Cr9WYrqjXDXj0A-x--28" style="edgeStyle=orthogonalEdgeStyle;rounded=0;orthogonalLoop=1;jettySize=auto;html=1;exitX=0.5;exitY=1;exitDx=0;exitDy=0;entryX=0.5;entryY=0;entryDx=0;entryDy=0;" edge="1" parent="VG4Cr9WYrqjXDXj0A-x--7" source="VG4Cr9WYrqjXDXj0A-x--22" target="VG4Cr9WYrqjXDXj0A-x--27">
          <mxGeometry relative="1" as="geometry" />
        </mxCell>
        <mxCell id="VG4Cr9WYrqjXDXj0A-x--22" value="&lt;font style=&quot;font-size: 8px;&quot;&gt;Login/ Sign up&lt;/font&gt;" style="rounded=0;whiteSpace=wrap;html=1;" vertex="1" parent="VG4Cr9WYrqjXDXj0A-x--7">
          <mxGeometry x="150" y="10" width="63" height="20" as="geometry" />
        </mxCell>
        <mxCell id="VG4Cr9WYrqjXDXj0A-x--27" value="&lt;font style=&quot;font-size: 9px;&quot;&gt;show login/signup modal&lt;/font&gt;" style="rounded=0;whiteSpace=wrap;html=1;" vertex="1" parent="VG4Cr9WYrqjXDXj0A-x--7">
          <mxGeometry x="131.5" y="75" width="100" height="30" as="geometry" />
        </mxCell>
        <mxCell id="VG4Cr9WYrqjXDXj0A-x--48" style="rounded=0;orthogonalLoop=1;jettySize=auto;html=1;entryX=0.5;entryY=1;entryDx=0;entryDy=0;" edge="1" parent="VG4Cr9WYrqjXDXj0A-x--7" source="VG4Cr9WYrqjXDXj0A-x--36" target="VG4Cr9WYrqjXDXj0A-x--25">
          <mxGeometry relative="1" as="geometry" />
        </mxCell>
        <mxCell id="VG4Cr9WYrqjXDXj0A-x--36" value="&lt;font style=&quot;font-size: 9px;&quot;&gt;User dropdown menu&lt;/font&gt;" style="rounded=0;whiteSpace=wrap;html=1;" vertex="1" parent="VG4Cr9WYrqjXDXj0A-x--7">
          <mxGeometry x="566" y="105" width="87" height="35" as="geometry" />
        </mxCell>
        <mxCell id="VG4Cr9WYrqjXDXj0A-x--25" value="&lt;font style=&quot;font-size: 10px;&quot;&gt;user&#39;s profile&lt;/font&gt;" style="rounded=0;whiteSpace=wrap;html=1;" vertex="1" parent="VG4Cr9WYrqjXDXj0A-x--7">
          <mxGeometry x="570" y="-25" width="79" height="40" as="geometry" />
        </mxCell>
        <mxCell id="VG4Cr9WYrqjXDXj0A-x--42" value="Take route&#39;s data" style="rounded=0;whiteSpace=wrap;html=1;" vertex="1" parent="VG4Cr9WYrqjXDXj0A-x--7">
          <mxGeometry x="320" y="97.5" width="100" height="40" as="geometry" />
        </mxCell>
        <mxCell id="VG4Cr9WYrqjXDXj0A-x--61" value="&lt;font style=&quot;font-size: 9px;&quot;&gt;Admin dropdown menu&lt;/font&gt;" style="rounded=0;whiteSpace=wrap;html=1;" vertex="1" parent="VG4Cr9WYrqjXDXj0A-x--7">
          <mxGeometry x="1000" y="102.5" width="87" height="35" as="geometry" />
        </mxCell>
        <mxCell id="VG4Cr9WYrqjXDXj0A-x--67" value="" style="edgeStyle=orthogonalEdgeStyle;rounded=0;orthogonalLoop=1;jettySize=auto;html=1;entryX=0;entryY=0.5;entryDx=0;entryDy=0;" edge="1" parent="VG4Cr9WYrqjXDXj0A-x--7" source="VG4Cr9WYrqjXDXj0A-x--25" target="VG4Cr9WYrqjXDXj0A-x--68">
          <mxGeometry relative="1" as="geometry">
            <Array as="points">
              <mxPoint x="679" y="-5" />
              <mxPoint x="679" y="30" />
            </Array>
          </mxGeometry>
        </mxCell>
        <mxCell id="VG4Cr9WYrqjXDXj0A-x--68" value="Update Route" style="rounded=0;whiteSpace=wrap;html=1;" vertex="1" parent="VG4Cr9WYrqjXDXj0A-x--7">
          <mxGeometry x="849" y="15" width="84" height="30" as="geometry" />
        </mxCell>
        <mxCell id="VG4Cr9WYrqjXDXj0A-x--70" value="&lt;font style=&quot;font-size: 10px;&quot;&gt;Form for input profile, Avatar&lt;/font&gt;" style="rounded=0;whiteSpace=wrap;html=1;" vertex="1" parent="VG4Cr9WYrqjXDXj0A-x--7">
          <mxGeometry x="690.88" y="102.5" width="112.75" height="40" as="geometry" />
        </mxCell>
        <mxCell id="VG4Cr9WYrqjXDXj0A-x--23" style="rounded=0;orthogonalLoop=1;jettySize=auto;html=1;exitX=0.5;exitY=0.5;exitDx=0;exitDy=0;exitPerimeter=0;entryX=0;entryY=0.5;entryDx=0;entryDy=0;" edge="1" parent="1" source="VG4Cr9WYrqjXDXj0A-x--8" target="VG4Cr9WYrqjXDXj0A-x--9">
          <mxGeometry relative="1" as="geometry" />
        </mxCell>
        <mxCell id="VG4Cr9WYrqjXDXj0A-x--15" value="" style="rounded=0;orthogonalLoop=1;jettySize=auto;html=1;entryX=0;entryY=0.5;entryDx=0;entryDy=0;" edge="1" parent="1" source="VG4Cr9WYrqjXDXj0A-x--12" target="VG4Cr9WYrqjXDXj0A-x--14">
          <mxGeometry relative="1" as="geometry" />
        </mxCell>
        <mxCell id="VG4Cr9WYrqjXDXj0A-x--18" value="" style="rounded=0;orthogonalLoop=1;jettySize=auto;html=1;entryX=1;entryY=0.5;entryDx=0;entryDy=0;exitX=0.5;exitY=1;exitDx=0;exitDy=0;edgeStyle=orthogonalEdgeStyle;" edge="1" parent="1" source="VG4Cr9WYrqjXDXj0A-x--12" target="VG4Cr9WYrqjXDXj0A-x--22">
          <mxGeometry relative="1" as="geometry">
            <mxPoint x="520" y="270" as="targetPoint" />
          </mxGeometry>
        </mxCell>
        <mxCell id="VG4Cr9WYrqjXDXj0A-x--20" value="&lt;font style=&quot;font-size: 9px;&quot;&gt;&amp;nbsp;not logged in&lt;/font&gt;" style="edgeLabel;html=1;align=center;verticalAlign=middle;resizable=0;points=[];fontSize=5;rotation=0;" vertex="1" connectable="0" parent="VG4Cr9WYrqjXDXj0A-x--18">
          <mxGeometry x="-0.2917" relative="1" as="geometry">
            <mxPoint x="-2" y="-7" as="offset" />
          </mxGeometry>
        </mxCell>
        <mxCell id="VG4Cr9WYrqjXDXj0A-x--12" value="&lt;font style=&quot;font-size: 8px;&quot;&gt;Authentication&lt;/font&gt;" style="rhombus;whiteSpace=wrap;html=1;rounded=0;" vertex="1" parent="1">
          <mxGeometry x="440" y="202.5" width="60" height="65" as="geometry" />
        </mxCell>
        <mxCell id="VG4Cr9WYrqjXDXj0A-x--21" style="rounded=0;orthogonalLoop=1;jettySize=auto;html=1;exitX=1;exitY=0.5;exitDx=0;exitDy=0;entryX=0.03;entryY=0.503;entryDx=0;entryDy=0;entryPerimeter=0;" edge="1" parent="1" source="VG4Cr9WYrqjXDXj0A-x--9" target="VG4Cr9WYrqjXDXj0A-x--12">
          <mxGeometry relative="1" as="geometry" />
        </mxCell>
        <mxCell id="VG4Cr9WYrqjXDXj0A-x--9" value="&lt;font style=&quot;font-size: 9px;&quot;&gt;Create Route&lt;/font&gt;" style="rounded=0;whiteSpace=wrap;html=1;" vertex="1" parent="1">
          <mxGeometry x="342" y="200" width="63" height="20" as="geometry" />
        </mxCell>
        <mxCell id="VG4Cr9WYrqjXDXj0A-x--2" value="User" style="rounded=0;whiteSpace=wrap;html=1;" vertex="1" parent="1">
          <mxGeometry x="130" y="170" width="79" height="130" as="geometry" />
        </mxCell>
        <mxCell id="VG4Cr9WYrqjXDXj0A-x--8" value="user" style="shape=umlActor;verticalLabelPosition=bottom;verticalAlign=top;html=1;outlineConnect=0;" vertex="1" parent="1">
          <mxGeometry x="219" y="220" width="30" height="40" as="geometry" />
        </mxCell>
        <mxCell id="VG4Cr9WYrqjXDXj0A-x--10" style="rounded=0;orthogonalLoop=1;jettySize=auto;html=1;exitX=0.5;exitY=0.5;exitDx=0;exitDy=0;exitPerimeter=0;entryX=0;entryY=0.5;entryDx=0;entryDy=0;" edge="1" parent="1" source="VG4Cr9WYrqjXDXj0A-x--8" target="VG4Cr9WYrqjXDXj0A-x--22">
          <mxGeometry relative="1" as="geometry" />
        </mxCell>
        <mxCell id="VG4Cr9WYrqjXDXj0A-x--5" value="Back-end" style="rounded=0;whiteSpace=wrap;html=1;" vertex="1" parent="1">
          <mxGeometry x="130" y="440" width="80" height="170" as="geometry" />
        </mxCell>
        <mxCell id="VG4Cr9WYrqjXDXj0A-x--6" value="" style="rounded=0;whiteSpace=wrap;html=1;" vertex="1" parent="1">
          <mxGeometry x="209" y="440" width="1370" height="170" as="geometry" />
        </mxCell>
        <mxCell id="VG4Cr9WYrqjXDXj0A-x--30" value="&lt;font style=&quot;font-size: 8px;&quot;&gt;get user login/signup data&lt;/font&gt;" style="rounded=0;whiteSpace=wrap;html=1;" vertex="1" parent="1">
          <mxGeometry x="266.5" y="492.5" width="70" height="40" as="geometry" />
        </mxCell>
        <mxCell id="VG4Cr9WYrqjXDXj0A-x--31" style="rounded=0;orthogonalLoop=1;jettySize=auto;html=1;exitX=0.5;exitY=1;exitDx=0;exitDy=0;entryX=0.5;entryY=0;entryDx=0;entryDy=0;" edge="1" parent="1" source="VG4Cr9WYrqjXDXj0A-x--27" target="VG4Cr9WYrqjXDXj0A-x--30">
          <mxGeometry relative="1" as="geometry" />
        </mxCell>
        <mxCell id="VG4Cr9WYrqjXDXj0A-x--32" value="send data through graphql" style="edgeLabel;html=1;align=center;verticalAlign=middle;resizable=0;points=[];" vertex="1" connectable="0" parent="VG4Cr9WYrqjXDXj0A-x--31">
          <mxGeometry x="-0.1098" y="2" relative="1" as="geometry">
            <mxPoint as="offset" />
          </mxGeometry>
        </mxCell>
        <mxCell id="VG4Cr9WYrqjXDXj0A-x--35" style="rounded=0;orthogonalLoop=1;jettySize=auto;html=1;entryX=0;entryY=0.5;entryDx=0;entryDy=0;exitX=1;exitY=0.5;exitDx=0;exitDy=0;exitPerimeter=0;" edge="1" parent="1" source="VG4Cr9WYrqjXDXj0A-x--47" target="VG4Cr9WYrqjXDXj0A-x--38">
          <mxGeometry relative="1" as="geometry">
            <mxPoint x="630" y="510" as="sourcePoint" />
          </mxGeometry>
        </mxCell>
        <mxCell id="VG4Cr9WYrqjXDXj0A-x--37" value="&lt;font size=&quot;1&quot;&gt;check role&lt;/font&gt;" style="edgeLabel;html=1;align=center;verticalAlign=middle;resizable=0;points=[];" vertex="1" connectable="0" parent="VG4Cr9WYrqjXDXj0A-x--35">
          <mxGeometry x="0.2605" y="2" relative="1" as="geometry">
            <mxPoint x="-12" y="2" as="offset" />
          </mxGeometry>
        </mxCell>
        <mxCell id="VG4Cr9WYrqjXDXj0A-x--33" value="&lt;font style=&quot;font-size: 9px;&quot;&gt;database&lt;/font&gt;" style="shape=cylinder3;whiteSpace=wrap;html=1;boundedLbl=1;backgroundOutline=1;size=15;" vertex="1" parent="1">
          <mxGeometry x="463.75" y="480" width="52.5" height="65" as="geometry" />
        </mxCell>
        <mxCell id="VG4Cr9WYrqjXDXj0A-x--34" style="rounded=0;orthogonalLoop=1;jettySize=auto;html=1;exitX=1;exitY=0.5;exitDx=0;exitDy=0;entryX=0;entryY=0.5;entryDx=0;entryDy=0;entryPerimeter=0;" edge="1" parent="1" source="VG4Cr9WYrqjXDXj0A-x--30" target="VG4Cr9WYrqjXDXj0A-x--33">
          <mxGeometry relative="1" as="geometry" />
        </mxCell>
        <mxCell id="VG4Cr9WYrqjXDXj0A-x--40" style="rounded=0;orthogonalLoop=1;jettySize=auto;html=1;entryX=0.5;entryY=1;entryDx=0;entryDy=0;" edge="1" parent="1" source="VG4Cr9WYrqjXDXj0A-x--38" target="VG4Cr9WYrqjXDXj0A-x--36">
          <mxGeometry relative="1" as="geometry" />
        </mxCell>
        <mxCell id="VG4Cr9WYrqjXDXj0A-x--49" value="user" style="edgeLabel;html=1;align=center;verticalAlign=middle;resizable=0;points=[];" vertex="1" connectable="0" parent="VG4Cr9WYrqjXDXj0A-x--40">
          <mxGeometry x="0.2637" y="1" relative="1" as="geometry">
            <mxPoint as="offset" />
          </mxGeometry>
        </mxCell>
        <mxCell id="VG4Cr9WYrqjXDXj0A-x--62" style="edgeStyle=orthogonalEdgeStyle;rounded=0;orthogonalLoop=1;jettySize=auto;html=1;exitX=1;exitY=0.5;exitDx=0;exitDy=0;entryX=0.5;entryY=1;entryDx=0;entryDy=0;" edge="1" parent="1" source="VG4Cr9WYrqjXDXj0A-x--38" target="VG4Cr9WYrqjXDXj0A-x--61">
          <mxGeometry relative="1" as="geometry" />
        </mxCell>
        <mxCell id="VG4Cr9WYrqjXDXj0A-x--63" value="Admin" style="edgeLabel;html=1;align=center;verticalAlign=middle;resizable=0;points=[];" vertex="1" connectable="0" parent="VG4Cr9WYrqjXDXj0A-x--62">
          <mxGeometry x="0.2473" relative="1" as="geometry">
            <mxPoint as="offset" />
          </mxGeometry>
        </mxCell>
        <mxCell id="VG4Cr9WYrqjXDXj0A-x--38" value="&lt;font style=&quot;font-size: 9px;&quot;&gt;user&#39;s role&lt;/font&gt;" style="rhombus;whiteSpace=wrap;html=1;" vertex="1" parent="1">
          <mxGeometry x="695.5" y="476.25" width="70" height="67.5" as="geometry" />
        </mxCell>
        <mxCell id="VG4Cr9WYrqjXDXj0A-x--41" value="" style="edgeStyle=orthogonalEdgeStyle;rounded=0;orthogonalLoop=1;jettySize=auto;html=1;entryX=0.5;entryY=0;entryDx=0;entryDy=0;exitX=0.5;exitY=1;exitDx=0;exitDy=0;" edge="1" parent="1" source="VG4Cr9WYrqjXDXj0A-x--14" target="VG4Cr9WYrqjXDXj0A-x--42">
          <mxGeometry relative="1" as="geometry">
            <mxPoint x="551" y="240" as="sourcePoint" />
            <mxPoint x="500" y="335" as="targetPoint" />
            <Array as="points">
              <mxPoint x="580" y="270" />
              <mxPoint x="501" y="270" />
              <mxPoint x="501" y="338" />
            </Array>
          </mxGeometry>
        </mxCell>
        <mxCell id="VG4Cr9WYrqjXDXj0A-x--14" value="&lt;font style=&quot;font-size: 10px;&quot;&gt;Route Created&lt;/font&gt;" style="whiteSpace=wrap;html=1;rounded=0;" vertex="1" parent="1">
          <mxGeometry x="540" y="215" width="80" height="40" as="geometry" />
        </mxCell>
        <mxCell id="VG4Cr9WYrqjXDXj0A-x--43" style="rounded=0;orthogonalLoop=1;jettySize=auto;html=1;exitX=0.5;exitY=1;exitDx=0;exitDy=0;entryX=0.5;entryY=0;entryDx=0;entryDy=0;entryPerimeter=0;" edge="1" parent="1" source="VG4Cr9WYrqjXDXj0A-x--42" target="VG4Cr9WYrqjXDXj0A-x--33">
          <mxGeometry relative="1" as="geometry" />
        </mxCell>
        <mxCell id="VG4Cr9WYrqjXDXj0A-x--44" value="Graphql" style="edgeLabel;html=1;align=center;verticalAlign=middle;resizable=0;points=[];" vertex="1" connectable="0" parent="VG4Cr9WYrqjXDXj0A-x--43">
          <mxGeometry x="-0.3298" y="1" relative="1" as="geometry">
            <mxPoint as="offset" />
          </mxGeometry>
        </mxCell>
        <mxCell id="VG4Cr9WYrqjXDXj0A-x--47" value="database" style="shape=cylinder3;whiteSpace=wrap;html=1;boundedLbl=1;backgroundOutline=1;size=15;" vertex="1" parent="1">
          <mxGeometry x="570" y="475" width="60" height="70" as="geometry" />
        </mxCell>
        <mxCell id="VG4Cr9WYrqjXDXj0A-x--69" value="" style="rounded=0;orthogonalLoop=1;jettySize=auto;html=1;entryX=0.5;entryY=0;entryDx=0;entryDy=0;" edge="1" parent="1" source="VG4Cr9WYrqjXDXj0A-x--64" target="VG4Cr9WYrqjXDXj0A-x--70">
          <mxGeometry relative="1" as="geometry" />
        </mxCell>
        <mxCell id="VG4Cr9WYrqjXDXj0A-x--64" value="Update profile" style="whiteSpace=wrap;html=1;rounded=0;" vertex="1" parent="1">
          <mxGeometry x="827" y="180" width="80.5" height="35" as="geometry" />
        </mxCell>
        <mxCell id="VG4Cr9WYrqjXDXj0A-x--65" value="" style="edgeStyle=orthogonalEdgeStyle;rounded=0;orthogonalLoop=1;jettySize=auto;html=1;" edge="1" parent="1" source="VG4Cr9WYrqjXDXj0A-x--25" target="VG4Cr9WYrqjXDXj0A-x--64">
          <mxGeometry relative="1" as="geometry" />
        </mxCell>
        <mxCell id="VG4Cr9WYrqjXDXj0A-x--66" value="" style="edgeStyle=orthogonalEdgeStyle;rounded=0;orthogonalLoop=1;jettySize=auto;html=1;" edge="1" parent="1" source="VG4Cr9WYrqjXDXj0A-x--25" target="VG4Cr9WYrqjXDXj0A-x--64">
          <mxGeometry relative="1" as="geometry" />
        </mxCell>
        <mxCell id="VG4Cr9WYrqjXDXj0A-x--73" value="" style="rounded=0;orthogonalLoop=1;jettySize=auto;html=1;entryX=0.5;entryY=1;entryDx=0;entryDy=0;entryPerimeter=0;edgeStyle=orthogonalEdgeStyle;exitX=0;exitY=0.5;exitDx=0;exitDy=0;strokeColor=default;" edge="1" parent="1" source="VG4Cr9WYrqjXDXj0A-x--71" target="VG4Cr9WYrqjXDXj0A-x--47">
          <mxGeometry relative="1" as="geometry">
            <Array as="points">
              <mxPoint x="807" y="561" />
              <mxPoint x="719" y="561" />
              <mxPoint x="719" y="565" />
              <mxPoint x="600" y="565" />
            </Array>
          </mxGeometry>
        </mxCell>
        <mxCell id="VG4Cr9WYrqjXDXj0A-x--71" value="&lt;font style=&quot;font-size: 9px;&quot;&gt;get user data&lt;/font&gt;" style="rounded=0;whiteSpace=wrap;html=1;" vertex="1" parent="1">
          <mxGeometry x="820.88" y="550" width="92.75" height="16.25" as="geometry" />
        </mxCell>
        <mxCell id="VG4Cr9WYrqjXDXj0A-x--72" value="" style="rounded=0;orthogonalLoop=1;jettySize=auto;html=1;entryX=0.5;entryY=0;entryDx=0;entryDy=0;" edge="1" parent="1" source="VG4Cr9WYrqjXDXj0A-x--70" target="VG4Cr9WYrqjXDXj0A-x--71">
          <mxGeometry relative="1" as="geometry" />
        </mxCell>
        <mxCell id="VG4Cr9WYrqjXDXj0A-x--74" value="graphql" style="edgeLabel;html=1;align=center;verticalAlign=middle;resizable=0;points=[];" vertex="1" connectable="0" parent="VG4Cr9WYrqjXDXj0A-x--72">
          <mxGeometry x="-0.1306" relative="1" as="geometry">
            <mxPoint as="offset" />
          </mxGeometry>
        </mxCell>
      </root>
    </mxGraphModel>
  </diagram>
</mxfile>
